<svg xmlns="http://www.w3.org/2000/svg" xmlns:xlink="http://www.w3.org/1999/xlink" width="64" height="64" viewBox="0 0 64 64">
  <metadata><?xpacket begin="﻿" id="W5M0MpCehiHzreSzNTczkc9d"?>
<x:xmpmeta xmlns:x="adobe:ns:meta/" x:xmptk="Adobe XMP Core 5.6-c138 79.159824, 2016/09/14-01:09:01        ">
   <rdf:RDF xmlns:rdf="http://www.w3.org/1999/02/22-rdf-syntax-ns#">
      <rdf:Description rdf:about=""/>
   </rdf:RDF>
</x:xmpmeta>
                                                                                                    
                                                                                                    
                                                                                                    
                                                                                                    
                                                                                                    
                                                                                                    
                                                                                                    
                                                                                                    
                                                                                                    
                                                                                                    
                                                                                                    
                                                                                                    
                                                                                                    
                                                                                                    
                                                                                                    
                                                                                                    
                                                                                                    
                                                                                                    
                                                                                                    
                                                                                                    
                           
<?xpacket end="w"?></metadata>
<defs>
    <style>
      .cls-1 {
        fill-rule: evenodd;
        filter: url(#filter);
      }
    </style>
    <filter id="filter" x="0" y="3" width="64" height="58" filterUnits="userSpaceOnUse">
      <feFlood result="flood" flood-color="#b1b1b1"/>
      <feComposite result="composite" operator="in" in2="SourceGraphic"/>
      <feBlend result="blend" in2="SourceGraphic"/>
    </filter>
  </defs>
  <path class="cls-1" d="M47.208,61a6.111,6.111,0,0,1-1.529-.195L4.439,49.887A5.979,5.979,0,0,1,.194,42.624L4.728,25.438a2,2,0,0,1,2.44-1.413A1.974,1.974,0,0,1,8.6,26.437L4.063,43.626A2.01,2.01,0,0,0,5.488,46.07L46.7,56.982A1.99,1.99,0,0,0,49.133,55.6l1.408-5.616a2.005,2.005,0,0,1,2.422-1.444,1.977,1.977,0,0,1,1.461,2.393l-1.413,5.642A6,6,0,0,1,47.208,61ZM58,45.182H16.664a5.972,5.972,0,0,1-6-5.932V8.932a5.972,5.972,0,0,1,6-5.932H58a5.972,5.972,0,0,1,6,5.932V39.25A5.972,5.972,0,0,1,58,45.182ZM16.664,6.954a1.99,1.99,0,0,0-2,1.977V39.25a1.99,1.99,0,0,0,2,1.977H58a1.99,1.99,0,0,0,2-1.977V8.932a1.99,1.99,0,0,0-2-1.977H16.664ZM24,21.455a5.273,5.273,0,1,1,5.333-5.273A5.309,5.309,0,0,1,24,21.455Zm0-6.591a1.318,1.318,0,1,0,1.333,1.318A1.327,1.327,0,0,0,24,14.863ZM12.717,42.493a2,2,0,0,1-1.413-.58,1.962,1.962,0,0,1,0-2.8L23.358,27.2a4.719,4.719,0,0,1,6.614,0L33.2,30.387l9.9-11.753a4.688,4.688,0,0,1,3.563-1.663,4.309,4.309,0,0,1,3.576,1.621L63.515,33.9a1.963,1.963,0,0,1-.216,2.789,2.017,2.017,0,0,1-2.821-.213L47.2,21.162a0.805,0.805,0,0,0-.512-0.235,0.674,0.674,0,0,0-.512.24L34.866,34.586a2.005,2.005,0,0,1-1.445.709,1.973,1.973,0,0,1-1.5-.577L27.142,30a0.582,0.582,0,0,0-.958,0L14.131,41.913A2,2,0,0,1,12.717,42.493Z"/>
</svg>
