<svg xmlns="http://www.w3.org/2000/svg" xmlns:xlink="http://www.w3.org/1999/xlink" width="64" height="64" viewBox="0 0 64 64">
  <metadata><?xpacket begin="﻿" id="W5M0MpCehiHzreSzNTczkc9d"?>
<x:xmpmeta xmlns:x="adobe:ns:meta/" x:xmptk="Adobe XMP Core 5.6-c138 79.159824, 2016/09/14-01:09:01        ">
   <rdf:RDF xmlns:rdf="http://www.w3.org/1999/02/22-rdf-syntax-ns#">
      <rdf:Description rdf:about=""/>
   </rdf:RDF>
</x:xmpmeta>
                                                                                                    
                                                                                                    
                                                                                                    
                                                                                                    
                                                                                                    
                                                                                                    
                                                                                                    
                                                                                                    
                                                                                                    
                                                                                                    
                                                                                                    
                                                                                                    
                                                                                                    
                                                                                                    
                                                                                                    
                                                                                                    
                                                                                                    
                                                                                                    
                                                                                                    
                                                                                                    
                           
<?xpacket end="w"?></metadata>
<defs>
    <style>
      .cls-1 {
        fill-rule: evenodd;
        filter: url(#filter);
      }
    </style>
    <filter id="filter" x="0.438" y="1" width="62.563" height="63" filterUnits="userSpaceOnUse">
      <feFlood result="flood" flood-color="#323232"/>
      <feComposite result="composite" operator="in" in2="SourceGraphic"/>
      <feBlend result="blend" in2="SourceGraphic"/>
    </filter>
  </defs>
  <path class="cls-1" d="M31,29.637A3.6,3.6,0,0,1,31,36.8,3.6,3.6,0,0,1,31,29.637Zm13.123,0a3.6,3.6,0,1,1-3.232,3.579A3.419,3.419,0,0,1,44.124,29.637Zm-26.246,0a3.6,3.6,0,0,1,0,7.159A3.6,3.6,0,0,1,17.878,29.637ZM31.712,1A31.508,31.508,0,0,0,4.81,48.544L3.29,60.781a2.862,2.862,0,0,0,2.474,3.2A2.815,2.815,0,0,0,6.112,64a2.758,2.758,0,0,0,.69-0.086l11.606-2.921A30.712,30.712,0,0,0,31.712,64,31.5,31.5,0,0,0,31.712,1Zm0,57.272a25.156,25.156,0,0,1-11.679-2.861,2.828,2.828,0,0,0-1.3-.315,2.767,2.767,0,0,0-.69.086l-8.59,2.162,1.127-9.092a2.872,2.872,0,0,0-.427-1.9A25.859,25.859,0,0,1,17.985,10.8a25.48,25.48,0,0,1,35.32,7.886,25.859,25.859,0,0,1-7.833,35.559A25.457,25.457,0,0,1,31.712,58.273Z"/>
</svg>
